<mxfile host="Electron" modified="2024-04-03T17:25:56.610Z" agent="Mozilla/5.0 (Windows NT 10.0; Win64; x64) AppleWebKit/537.36 (KHTML, like Gecko) draw.io/24.1.0 Chrome/120.0.6099.109 Electron/28.1.0 Safari/537.36" etag="e7v1vP2eqe_p7_Yr8ckr" version="24.1.0" type="device">
  <diagram name="Page-1" id="qqPMl5h_PYIoN2VLyfxo">
    <mxGraphModel dx="1323" dy="795" grid="1" gridSize="10" guides="1" tooltips="1" connect="1" arrows="1" fold="1" page="1" pageScale="1" pageWidth="1169" pageHeight="827" math="0" shadow="0">
      <root>
        <mxCell id="0" />
        <mxCell id="1" parent="0" />
        <mxCell id="sDcF2iz5Po3QNCJIu0HF-16" style="edgeStyle=orthogonalEdgeStyle;rounded=1;orthogonalLoop=1;jettySize=auto;html=1;entryX=0;entryY=0.5;entryDx=0;entryDy=0;exitX=0.5;exitY=0;exitDx=0;exitDy=0;exitPerimeter=0;sketch=1;curveFitting=1;jiggle=2;labelBackgroundColor=none;strokeColor=#A8201A;fontColor=default;" edge="1" parent="1" source="sDcF2iz5Po3QNCJIu0HF-1" target="sDcF2iz5Po3QNCJIu0HF-4">
          <mxGeometry relative="1" as="geometry" />
        </mxCell>
        <mxCell id="sDcF2iz5Po3QNCJIu0HF-18" style="edgeStyle=orthogonalEdgeStyle;rounded=1;orthogonalLoop=1;jettySize=auto;html=1;exitX=0.75;exitY=0.1;exitDx=0;exitDy=0;exitPerimeter=0;entryX=0;entryY=0.5;entryDx=0;entryDy=0;sketch=1;curveFitting=1;jiggle=2;labelBackgroundColor=none;strokeColor=#A8201A;fontColor=default;" edge="1" parent="1" source="sDcF2iz5Po3QNCJIu0HF-1" target="sDcF2iz5Po3QNCJIu0HF-7">
          <mxGeometry relative="1" as="geometry" />
        </mxCell>
        <mxCell id="sDcF2iz5Po3QNCJIu0HF-20" style="edgeStyle=orthogonalEdgeStyle;rounded=1;orthogonalLoop=1;jettySize=auto;html=1;exitX=1;exitY=0.3333333333333333;exitDx=0;exitDy=0;exitPerimeter=0;entryX=0;entryY=0.5;entryDx=0;entryDy=0;sketch=1;curveFitting=1;jiggle=2;labelBackgroundColor=none;strokeColor=#A8201A;fontColor=default;" edge="1" parent="1" source="sDcF2iz5Po3QNCJIu0HF-1" target="sDcF2iz5Po3QNCJIu0HF-8">
          <mxGeometry relative="1" as="geometry">
            <Array as="points">
              <mxPoint x="280" y="393" />
              <mxPoint x="280" y="299" />
            </Array>
          </mxGeometry>
        </mxCell>
        <mxCell id="sDcF2iz5Po3QNCJIu0HF-24" style="edgeStyle=orthogonalEdgeStyle;rounded=1;orthogonalLoop=1;jettySize=auto;html=1;exitX=0;exitY=0.3333333333333333;exitDx=0;exitDy=0;exitPerimeter=0;entryX=0;entryY=0.5;entryDx=0;entryDy=0;sketch=1;curveFitting=1;jiggle=2;labelBackgroundColor=none;strokeColor=#A8201A;fontColor=default;" edge="1" parent="1" source="sDcF2iz5Po3QNCJIu0HF-1" target="sDcF2iz5Po3QNCJIu0HF-9">
          <mxGeometry relative="1" as="geometry">
            <Array as="points">
              <mxPoint x="280" y="393" />
              <mxPoint x="280" y="360" />
              <mxPoint x="560" y="360" />
              <mxPoint x="560" y="299" />
            </Array>
          </mxGeometry>
        </mxCell>
        <mxCell id="sDcF2iz5Po3QNCJIu0HF-25" style="edgeStyle=orthogonalEdgeStyle;rounded=1;orthogonalLoop=1;jettySize=auto;html=1;exitX=0.5;exitY=0.5;exitDx=0;exitDy=0;exitPerimeter=0;entryX=0;entryY=0.5;entryDx=0;entryDy=0;sketch=1;curveFitting=1;jiggle=2;labelBackgroundColor=none;strokeColor=#A8201A;fontColor=default;" edge="1" parent="1" source="sDcF2iz5Po3QNCJIu0HF-1" target="sDcF2iz5Po3QNCJIu0HF-10">
          <mxGeometry relative="1" as="geometry">
            <Array as="points">
              <mxPoint x="240" y="414" />
              <mxPoint x="240" y="409" />
            </Array>
          </mxGeometry>
        </mxCell>
        <mxCell id="sDcF2iz5Po3QNCJIu0HF-26" style="edgeStyle=orthogonalEdgeStyle;rounded=1;orthogonalLoop=1;jettySize=auto;html=1;exitX=0.5;exitY=0.5;exitDx=0;exitDy=0;exitPerimeter=0;entryX=0;entryY=0.5;entryDx=0;entryDy=0;sketch=1;curveFitting=1;jiggle=2;labelBackgroundColor=none;strokeColor=#A8201A;fontColor=default;" edge="1" parent="1" source="sDcF2iz5Po3QNCJIu0HF-1" target="sDcF2iz5Po3QNCJIu0HF-11">
          <mxGeometry relative="1" as="geometry">
            <Array as="points">
              <mxPoint x="240" y="414" />
              <mxPoint x="240" y="450" />
              <mxPoint x="610" y="450" />
              <mxPoint x="610" y="409" />
            </Array>
          </mxGeometry>
        </mxCell>
        <mxCell id="sDcF2iz5Po3QNCJIu0HF-28" style="edgeStyle=orthogonalEdgeStyle;rounded=1;orthogonalLoop=1;jettySize=auto;html=1;exitX=1;exitY=1;exitDx=0;exitDy=0;exitPerimeter=0;entryX=0;entryY=0.5;entryDx=0;entryDy=0;sketch=1;curveFitting=1;jiggle=2;labelBackgroundColor=none;strokeColor=#A8201A;fontColor=default;" edge="1" parent="1" source="sDcF2iz5Po3QNCJIu0HF-1" target="sDcF2iz5Po3QNCJIu0HF-12">
          <mxGeometry relative="1" as="geometry">
            <mxPoint x="510" y="530" as="targetPoint" />
            <Array as="points">
              <mxPoint x="120" y="474" />
              <mxPoint x="120" y="519" />
            </Array>
          </mxGeometry>
        </mxCell>
        <mxCell id="sDcF2iz5Po3QNCJIu0HF-30" style="edgeStyle=orthogonalEdgeStyle;rounded=1;orthogonalLoop=1;jettySize=auto;html=1;exitX=1;exitY=1;exitDx=0;exitDy=0;exitPerimeter=0;entryX=0;entryY=0.5;entryDx=0;entryDy=0;sketch=1;curveFitting=1;jiggle=2;labelBackgroundColor=none;strokeColor=#A8201A;fontColor=default;" edge="1" parent="1" source="sDcF2iz5Po3QNCJIu0HF-1" target="sDcF2iz5Po3QNCJIu0HF-13">
          <mxGeometry relative="1" as="geometry">
            <Array as="points">
              <mxPoint x="120" y="474" />
              <mxPoint x="120" y="629" />
            </Array>
          </mxGeometry>
        </mxCell>
        <mxCell id="sDcF2iz5Po3QNCJIu0HF-34" style="edgeStyle=orthogonalEdgeStyle;rounded=1;orthogonalLoop=1;jettySize=auto;html=1;exitX=1;exitY=1;exitDx=0;exitDy=0;exitPerimeter=0;entryX=0;entryY=0.5;entryDx=0;entryDy=0;sketch=1;curveFitting=1;jiggle=2;labelBackgroundColor=none;strokeColor=#A8201A;fontColor=default;" edge="1" parent="1" source="sDcF2iz5Po3QNCJIu0HF-1" target="sDcF2iz5Po3QNCJIu0HF-15">
          <mxGeometry relative="1" as="geometry">
            <Array as="points">
              <mxPoint x="120" y="474" />
              <mxPoint x="120" y="739" />
            </Array>
          </mxGeometry>
        </mxCell>
        <mxCell id="sDcF2iz5Po3QNCJIu0HF-1" value="&lt;b&gt;APPLICANT&lt;/b&gt;" style="shape=umlActor;verticalLabelPosition=bottom;verticalAlign=top;html=1;rounded=1;sketch=1;curveFitting=1;jiggle=2;labelBackgroundColor=none;fillColor=#FAE5C7;strokeColor=#0F8B8D;fontColor=#143642;" vertex="1" parent="1">
          <mxGeometry x="20" y="353" width="60" height="121" as="geometry" />
        </mxCell>
        <mxCell id="sDcF2iz5Po3QNCJIu0HF-17" style="edgeStyle=orthogonalEdgeStyle;rounded=1;orthogonalLoop=1;jettySize=auto;html=1;exitX=0.5;exitY=0;exitDx=0;exitDy=0;exitPerimeter=0;entryX=1;entryY=0.5;entryDx=0;entryDy=0;sketch=1;curveFitting=1;jiggle=2;labelBackgroundColor=none;strokeColor=#A8201A;fontColor=default;" edge="1" parent="1" source="sDcF2iz5Po3QNCJIu0HF-3" target="sDcF2iz5Po3QNCJIu0HF-5">
          <mxGeometry relative="1" as="geometry" />
        </mxCell>
        <mxCell id="sDcF2iz5Po3QNCJIu0HF-19" style="edgeStyle=orthogonalEdgeStyle;rounded=1;orthogonalLoop=1;jettySize=auto;html=1;exitX=0.25;exitY=0.1;exitDx=0;exitDy=0;exitPerimeter=0;entryX=1;entryY=0.5;entryDx=0;entryDy=0;sketch=1;curveFitting=1;jiggle=2;labelBackgroundColor=none;strokeColor=#A8201A;fontColor=default;" edge="1" parent="1" source="sDcF2iz5Po3QNCJIu0HF-3" target="sDcF2iz5Po3QNCJIu0HF-6">
          <mxGeometry relative="1" as="geometry">
            <Array as="points">
              <mxPoint x="960" y="365" />
              <mxPoint x="960" y="191" />
            </Array>
          </mxGeometry>
        </mxCell>
        <mxCell id="sDcF2iz5Po3QNCJIu0HF-21" style="edgeStyle=orthogonalEdgeStyle;rounded=1;orthogonalLoop=1;jettySize=auto;html=1;exitX=0;exitY=0.3333333333333333;exitDx=0;exitDy=0;exitPerimeter=0;entryX=1;entryY=0.5;entryDx=0;entryDy=0;sketch=1;curveFitting=1;jiggle=2;labelBackgroundColor=none;strokeColor=#A8201A;fontColor=default;" edge="1" parent="1" target="sDcF2iz5Po3QNCJIu0HF-9">
          <mxGeometry relative="1" as="geometry">
            <mxPoint x="1090" y="393.3333333333335" as="sourcePoint" />
            <mxPoint x="779.9999999999959" y="299" as="targetPoint" />
            <Array as="points">
              <mxPoint x="920" y="393" />
              <mxPoint x="920" y="299" />
            </Array>
          </mxGeometry>
        </mxCell>
        <mxCell id="sDcF2iz5Po3QNCJIu0HF-27" style="edgeStyle=orthogonalEdgeStyle;rounded=1;orthogonalLoop=1;jettySize=auto;html=1;exitX=0.5;exitY=0.5;exitDx=0;exitDy=0;exitPerimeter=0;entryX=1;entryY=0.5;entryDx=0;entryDy=0;sketch=1;curveFitting=1;jiggle=2;labelBackgroundColor=none;strokeColor=#A8201A;fontColor=default;" edge="1" parent="1" source="sDcF2iz5Po3QNCJIu0HF-3" target="sDcF2iz5Po3QNCJIu0HF-11">
          <mxGeometry relative="1" as="geometry" />
        </mxCell>
        <mxCell id="sDcF2iz5Po3QNCJIu0HF-31" style="edgeStyle=orthogonalEdgeStyle;rounded=1;orthogonalLoop=1;jettySize=auto;html=1;exitX=0;exitY=1;exitDx=0;exitDy=0;exitPerimeter=0;entryX=1;entryY=0.5;entryDx=0;entryDy=0;sketch=1;curveFitting=1;jiggle=2;labelBackgroundColor=none;strokeColor=#A8201A;fontColor=default;" edge="1" parent="1" source="sDcF2iz5Po3QNCJIu0HF-3" target="sDcF2iz5Po3QNCJIu0HF-14">
          <mxGeometry relative="1" as="geometry">
            <Array as="points">
              <mxPoint x="1000" y="474" />
              <mxPoint x="1000" y="629" />
            </Array>
          </mxGeometry>
        </mxCell>
        <mxCell id="sDcF2iz5Po3QNCJIu0HF-35" style="edgeStyle=orthogonalEdgeStyle;rounded=1;orthogonalLoop=1;jettySize=auto;html=1;exitX=0;exitY=1;exitDx=0;exitDy=0;exitPerimeter=0;entryX=1;entryY=0.5;entryDx=0;entryDy=0;sketch=1;curveFitting=1;jiggle=2;labelBackgroundColor=none;strokeColor=#A8201A;fontColor=default;" edge="1" parent="1" source="sDcF2iz5Po3QNCJIu0HF-3" target="sDcF2iz5Po3QNCJIu0HF-15">
          <mxGeometry relative="1" as="geometry">
            <Array as="points">
              <mxPoint x="1000" y="474" />
              <mxPoint x="1000" y="739" />
            </Array>
          </mxGeometry>
        </mxCell>
        <mxCell id="sDcF2iz5Po3QNCJIu0HF-3" value="&lt;b&gt;EMPLOYER&lt;/b&gt;" style="shape=umlActor;verticalLabelPosition=bottom;verticalAlign=top;html=1;rounded=1;sketch=1;curveFitting=1;jiggle=2;labelBackgroundColor=none;fillColor=#FAE5C7;strokeColor=#0F8B8D;fontColor=#143642;" vertex="1" parent="1">
          <mxGeometry x="1080" y="353" width="60" height="121" as="geometry" />
        </mxCell>
        <mxCell id="sDcF2iz5Po3QNCJIu0HF-4" value="&lt;b&gt;Create New Applicant&lt;/b&gt;" style="ellipse;whiteSpace=wrap;html=1;rounded=1;sketch=1;curveFitting=1;jiggle=2;labelBackgroundColor=none;fillColor=#FAE5C7;strokeColor=#0F8B8D;fontColor=#143642;" vertex="1" parent="1">
          <mxGeometry x="408" y="61" width="115" height="50" as="geometry" />
        </mxCell>
        <mxCell id="sDcF2iz5Po3QNCJIu0HF-5" value="&lt;b&gt;Create New Employer&lt;/b&gt;" style="ellipse;whiteSpace=wrap;html=1;rounded=1;sketch=1;curveFitting=1;jiggle=2;labelBackgroundColor=none;fillColor=#FAE5C7;strokeColor=#0F8B8D;fontColor=#143642;" vertex="1" parent="1">
          <mxGeometry x="650" y="61" width="115" height="50" as="geometry" />
        </mxCell>
        <mxCell id="sDcF2iz5Po3QNCJIu0HF-6" value="&lt;b&gt;Create and Manage Job Posts&lt;/b&gt;" style="ellipse;whiteSpace=wrap;html=1;rounded=1;sketch=1;curveFitting=1;jiggle=2;labelBackgroundColor=none;fillColor=#FAE5C7;strokeColor=#0F8B8D;fontColor=#143642;" vertex="1" parent="1">
          <mxGeometry x="645" y="161" width="125" height="60" as="geometry" />
        </mxCell>
        <mxCell id="sDcF2iz5Po3QNCJIu0HF-7" value="&lt;b&gt;Apply to Job Posts&lt;/b&gt;" style="ellipse;whiteSpace=wrap;html=1;rounded=1;sketch=1;curveFitting=1;jiggle=2;labelBackgroundColor=none;fillColor=#FAE5C7;strokeColor=#0F8B8D;fontColor=#143642;" vertex="1" parent="1">
          <mxGeometry x="403" y="170" width="125" height="51" as="geometry" />
        </mxCell>
        <mxCell id="sDcF2iz5Po3QNCJIu0HF-8" value="&lt;b&gt;Parse Applicant Resume&lt;/b&gt;" style="ellipse;whiteSpace=wrap;html=1;rounded=1;sketch=1;curveFitting=1;jiggle=2;labelBackgroundColor=none;fillColor=#FAE5C7;strokeColor=#0F8B8D;fontColor=#143642;" vertex="1" parent="1">
          <mxGeometry x="403" y="271" width="125" height="56" as="geometry" />
        </mxCell>
        <mxCell id="sDcF2iz5Po3QNCJIu0HF-9" value="&lt;b&gt;View Applicant Resume&lt;/b&gt;" style="ellipse;whiteSpace=wrap;html=1;rounded=1;sketch=1;curveFitting=1;jiggle=2;labelBackgroundColor=none;fillColor=#FAE5C7;strokeColor=#0F8B8D;fontColor=#143642;" vertex="1" parent="1">
          <mxGeometry x="645" y="271" width="125" height="56" as="geometry" />
        </mxCell>
        <mxCell id="sDcF2iz5Po3QNCJIu0HF-10" value="&lt;b&gt;Perform MBTI Test&lt;/b&gt;" style="ellipse;whiteSpace=wrap;html=1;rounded=1;sketch=1;curveFitting=1;jiggle=2;labelBackgroundColor=none;fillColor=#FAE5C7;strokeColor=#0F8B8D;fontColor=#143642;" vertex="1" parent="1">
          <mxGeometry x="403" y="381" width="125" height="56" as="geometry" />
        </mxCell>
        <mxCell id="sDcF2iz5Po3QNCJIu0HF-11" value="&lt;b&gt;View MBTI Test Results&lt;/b&gt;" style="ellipse;whiteSpace=wrap;html=1;rounded=1;sketch=1;curveFitting=1;jiggle=2;labelBackgroundColor=none;fillColor=#FAE5C7;strokeColor=#0F8B8D;fontColor=#143642;" vertex="1" parent="1">
          <mxGeometry x="645" y="381" width="125" height="56" as="geometry" />
        </mxCell>
        <mxCell id="sDcF2iz5Po3QNCJIu0HF-12" value="&lt;b&gt;Skill-based Role Matching&lt;/b&gt;" style="ellipse;whiteSpace=wrap;html=1;rounded=1;sketch=1;curveFitting=1;jiggle=2;labelBackgroundColor=none;fillColor=#FAE5C7;strokeColor=#0F8B8D;fontColor=#143642;" vertex="1" parent="1">
          <mxGeometry x="524" y="491" width="125" height="56" as="geometry" />
        </mxCell>
        <mxCell id="sDcF2iz5Po3QNCJIu0HF-13" value="&lt;b&gt;Interactive Applicant Dashboard&lt;/b&gt;" style="ellipse;whiteSpace=wrap;html=1;rounded=1;sketch=1;curveFitting=1;jiggle=2;labelBackgroundColor=none;fillColor=#FAE5C7;strokeColor=#0F8B8D;fontColor=#143642;" vertex="1" parent="1">
          <mxGeometry x="399" y="601" width="125" height="56" as="geometry" />
        </mxCell>
        <mxCell id="sDcF2iz5Po3QNCJIu0HF-14" value="&lt;b&gt;Interactive Recruiter Dashboard&lt;/b&gt;" style="ellipse;whiteSpace=wrap;html=1;rounded=1;sketch=1;curveFitting=1;jiggle=2;labelBackgroundColor=none;fillColor=#FAE5C7;strokeColor=#0F8B8D;fontColor=#143642;" vertex="1" parent="1">
          <mxGeometry x="645" y="601" width="125" height="56" as="geometry" />
        </mxCell>
        <mxCell id="sDcF2iz5Po3QNCJIu0HF-15" value="&lt;b&gt;Email Notifications&lt;/b&gt;" style="ellipse;whiteSpace=wrap;html=1;rounded=1;sketch=1;curveFitting=1;jiggle=2;labelBackgroundColor=none;fillColor=#FAE5C7;strokeColor=#0F8B8D;fontColor=#143642;" vertex="1" parent="1">
          <mxGeometry x="524" y="711" width="125" height="56" as="geometry" />
        </mxCell>
        <mxCell id="sDcF2iz5Po3QNCJIu0HF-29" style="edgeStyle=orthogonalEdgeStyle;rounded=1;orthogonalLoop=1;jettySize=auto;html=1;exitX=0;exitY=1;exitDx=0;exitDy=0;exitPerimeter=0;entryX=1;entryY=0.5;entryDx=0;entryDy=0;sketch=1;curveFitting=1;jiggle=2;labelBackgroundColor=none;strokeColor=#A8201A;fontColor=default;" edge="1" parent="1" source="sDcF2iz5Po3QNCJIu0HF-3" target="sDcF2iz5Po3QNCJIu0HF-12">
          <mxGeometry relative="1" as="geometry">
            <mxPoint x="690" y="520" as="targetPoint" />
            <Array as="points">
              <mxPoint x="1000" y="474" />
              <mxPoint x="1000" y="519" />
            </Array>
          </mxGeometry>
        </mxCell>
      </root>
    </mxGraphModel>
  </diagram>
</mxfile>
